<svg viewBox="0 0 1200 800" xmlns="http://www.w3.org/2000/svg">
  <!-- Background and Grid -->
  <defs>
    <pattern id="grid" width="20" height="20" patternUnits="userSpaceOnUse">
      <path d="M 20 0 L 0 0 0 20" fill="none" stroke="#f0f0f0" stroke-width="1"/>
    </pattern>
    <linearGradient id="webGradient" x1="0%" y1="0%" x2="100%" y2="100%">
      <stop offset="0%" style="stop-color:#4f46e5;stop-opacity:1" />
      <stop offset="100%" style="stop-color:#7c3aed;stop-opacity:1" />
    </linearGradient>
    <linearGradient id="kafkaGradient" x1="0%" y1="0%" x2="100%" y2="100%">
      <stop offset="0%" style="stop-color:#059669;stop-opacity:1" />
      <stop offset="100%" style="stop-color:#0d9488;stop-opacity:1" />
    </linearGradient>
    <linearGradient id="streamsGradient" x1="0%" y1="0%" x2="100%" y2="100%">
      <stop offset="0%" style="stop-color:#dc2626;stop-opacity:1" />
      <stop offset="100%" style="stop-color:#ea580c;stop-opacity:1" />
    </linearGradient>
    <linearGradient id="apiGradient" x1="0%" y1="0%" x2="100%" y2="100%">
      <stop offset="0%" style="stop-color:#7c2d12;stop-opacity:1" />
      <stop offset="100%" style="stop-color:#92400e;stop-opacity:1" />
    </linearGradient>
  </defs>
  
  <rect width="1200" height="800" fill="url(#grid)"/>
  
  <!-- Title and Header -->
  <rect x="20" y="20" width="1160" height="60" fill="#1f2937" rx="10"/>
  <text x="600" y="50" text-anchor="middle" fill="white" font-size="24" font-weight="bold">
    Kafka Streams Click Counter - Event-Driven Architecture
  </text>
  
  <!-- User Browser Section -->
  <g id="user-browser">
    <rect x="50" y="120" width="200" height="150" fill="url(#webGradient)" rx="10" stroke="#374151" stroke-width="2"/>
    <text x="150" y="140" text-anchor="middle" fill="white" font-size="14" font-weight="bold">User Browser</text>

    <!-- Browser window mockup -->
    <rect x="70" y="155" width="160" height="100" fill="white" rx="5"/>
    <rect x="70" y="155" width="160" height="20" fill="#e5e7eb" rx="5"/>
    <circle cx="80" cy="165" r="3" fill="#ef4444"/>
    <circle cx="90" cy="165" r="3" fill="#f59e0b"/>
    <circle cx="100" cy="165" r="3" fill="#10b981"/>

    <!-- Click button -->
    <rect x="110" y="200" width="80" height="30" fill="#3b82f6" rx="5"/>
    <text x="150" y="218" text-anchor="middle" fill="white" font-size="12" font-weight="bold">CLICK ME!</text>

    <text x="150" y="290" text-anchor="middle" fill="white" font-size="10">Thymeleaf UI</text>
  </g>
  
  <!-- Click Producer Application -->
  <g id="click-producer">
    <rect x="320" y="120" width="220" height="200" fill="url(#webGradient)" rx="10" stroke="#374151" stroke-width="2"/>
    <text x="430" y="140" text-anchor="middle" fill="white" font-size="14" font-weight="bold">Click Producer</text>
    <text x="430" y="155" text-anchor="middle" fill="white" font-size="10">(Spring Boot + Thymeleaf)</text>
    
    <!-- Internal components -->
    <rect x="340" y="170" width="180" height="30" fill="rgba(255,255,255,0.2)" rx="5"/>
    <text x="430" y="188" text-anchor="middle" fill="white" font-size="10">ClickController</text>
    
    <rect x="340" y="210" width="180" height="30" fill="rgba(255,255,255,0.2)" rx="5"/>
    <text x="430" y="228" text-anchor="middle" fill="white" font-size="10">ClickService</text>
    
    <rect x="340" y="250" width="85" height="30" fill="rgba(255,255,255,0.2)" rx="5"/>
    <text x="382" y="268" text-anchor="middle" fill="white" font-size="9">H2 Database</text>
    
    <rect x="435" y="250" width="85" height="30" fill="rgba(255,255,255,0.2)" rx="5"/>
    <text x="477" y="268" text-anchor="middle" fill="white" font-size="9">Kafka Producer</text>
    
    <text x="430" y="300" text-anchor="middle" fill="white" font-size="10">Port: 8080</text>
  </g>
  
  <!-- Kafka Cluster -->
  <g id="kafka-cluster">
    <rect x="350" y="380" width="500" height="120" fill="url(#kafkaGradient)" rx="10" stroke="#374151" stroke-width="2"/>
    <text x="600" y="400" text-anchor="middle" fill="white" font-size="16" font-weight="bold">Apache Kafka Cluster</text>
    
    <!-- Topics -->
    <rect x="370" y="420" width="140" height="60" fill="rgba(255,255,255,0.2)" rx="5"/>
    <text x="440" y="440" text-anchor="middle" fill="white" font-size="12" font-weight="bold">clicks</text>
    <text x="440" y="455" text-anchor="middle" fill="white" font-size="10">Topic</text>
    <text x="440" y="470" text-anchor="middle" fill="white" font-size="9">Partitions: 3</text>
    
    <rect x="540" y="420" width="140" height="60" fill="rgba(255,255,255,0.2)" rx="5"/>
    <text x="610" y="440" text-anchor="middle" fill="white" font-size="12" font-weight="bold">click-counts</text>
    <text x="610" y="455" text-anchor="middle" fill="white" font-size="10">Topic</text>
    <text x="610" y="470" text-anchor="middle" fill="white" font-size="9">Partitions: 3</text>
    
    <rect x="710" y="420" width="120" height="60" fill="rgba(255,255,255,0.2)" rx="5"/>
    <text x="770" y="440" text-anchor="middle" fill="white" font-size="12" font-weight="bold">Brokers</text>
    <text x="770" y="455" text-anchor="middle" fill="white" font-size="10">localhost:9092</text>
    <text x="770" y="470" text-anchor="middle" fill="white" font-size="9">Replication: 1</text>
  </g>
  
  <!-- Kafka Streams Application -->
  <g id="kafka-streams">
    <rect x="50" y="550" width="220" height="200" fill="url(#streamsGradient)" rx="10" stroke="#374151" stroke-width="2"/>
    <text x="160" y="570" text-anchor="middle" fill="white" font-size="14" font-weight="bold">Click Streams</text>
    <text x="160" y="585" text-anchor="middle" fill="white" font-size="10">(Kafka Streams + Spring Boot)</text>
    
    <!-- Stream processing components -->
    <rect x="70" y="600" width="180" height="30" fill="rgba(255,255,255,0.2)" rx="5"/>
    <text x="160" y="618" text-anchor="middle" fill="white" font-size="10">Stream Processor</text>
    
    <rect x="70" y="640" width="180" height="30" fill="rgba(255,255,255,0.2)" rx="5"/>
    <text x="160" y="658" text-anchor="middle" fill="white" font-size="10">Click Counter (KTable)</text>
    
    <rect x="70" y="680" width="180" height="30" fill="rgba(255,255,255,0.2)" rx="5"/>
    <text x="160" y="698" text-anchor="middle" fill="white" font-size="10">State Store</text>
    
    <text x="160" y="730" text-anchor="middle" fill="white" font-size="10">Port: 8081</text>
  </g>
  
  <!-- Click Consumer Application -->
  <g id="click-consumer">
    <rect x="930" y="120" width="220" height="200" fill="url(#apiGradient)" rx="10" stroke="#374151" stroke-width="2"/>
    <text x="1040" y="140" text-anchor="middle" fill="white" font-size="14" font-weight="bold">Click Consumer</text>
    <text x="1040" y="155" text-anchor="middle" fill="white" font-size="10">(Spring Boot REST API)</text>
    
    <!-- Internal components -->
    <rect x="950" y="170" width="180" height="30" fill="rgba(255,255,255,0.2)" rx="5"/>
    <text x="1040" y="188" text-anchor="middle" fill="white" font-size="10">CountController</text>
    
    <rect x="950" y="210" width="180" height="30" fill="rgba(255,255,255,0.2)" rx="5"/>
    <text x="1040" y="228" text-anchor="middle" fill="white" font-size="10">CountService</text>
    
    <rect x="950" y="250" width="85" height="30" fill="rgba(255,255,255,0.2)" rx="5"/>
    <text x="992" y="268" text-anchor="middle" fill="white" font-size="9">H2 Database</text>
    
    <rect x="1045" y="250" width="85" height="30" fill="rgba(255,255,255,0.2)" rx="5"/>
    <text x="1087" y="268" text-anchor="middle" fill="white" font-size="9">Kafka Consumer</text>
    
    <text x="1040" y="300" text-anchor="middle" fill="white" font-size="10">Port: 8082</text>
  </g>
  
  <!-- Data Flow Arrows -->
  <!-- User to Producer -->
  <defs>
    <marker id="arrowhead" markerWidth="10" markerHeight="7" refX="9" refY="3.5" orient="auto">
      <polygon points="0 0, 10 3.5, 0 7" fill="#374151"/>
    </marker>
  </defs>
  
  <!-- User click to Producer -->
  <path d="M 250 195 Q 285 195 320 195" stroke="#374151" stroke-width="3" fill="none" marker-end="url(#arrowhead)"/>
  <text x="285" y="185" text-anchor="middle" fill="#374151" font-size="11" font-weight="bold">HTTP POST</text>
  <text x="285" y="210" text-anchor="middle" fill="#374151" font-size="9">/click</text>
  
  <!-- Producer to Kafka -->
  <path d="M 430 320 Q 430 350 430 380" stroke="#374151" stroke-width="3" fill="none" marker-end="url(#arrowhead)"/>
  <text x="450" y="350" fill="#374151" font-size="11" font-weight="bold">Publish</text>
  <text x="450" y="365" fill="#374151" font-size="9">ClickEvent</text>
  
  <!-- Kafka to Streams -->
  <path d="M 370 450 Q 300 450 270 550" stroke="#374151" stroke-width="3" fill="none" marker-end="url(#arrowhead)"/>
  <text x="300" y="490" fill="#374151" font-size="11" font-weight="bold">Stream</text>
  <text x="300" y="505" fill="#374151" font-size="9">Process</text>
  
  <!-- Streams to Kafka -->
  <path d="M 270 640 Q 300 700 600 480" stroke="#374151" stroke-width="3" fill="none" marker-end="url(#arrowhead)"/>
  <text x="320" y="580" fill="#374151" font-size="11" font-weight="bold">Publish</text>
  <text x="320" y="595" fill="#374151" font-size="9">Counts</text>
  
  <!-- Kafka to Consumer -->
  <path d="M 680 450 Q 800 450 930 220" stroke="#374151" stroke-width="3" fill="none" marker-end="url(#arrowhead)"/>
  <text x="800" y="440" fill="#374151" font-size="11" font-weight="bold">Subscribe</text>
  <text x="800" y="455" fill="#374151" font-size="9">CountResults</text>
  
  <!-- REST API call -->
  <path d="M 930 195 Q 880 195 850 195" stroke="#dc2626" stroke-width="2" fill="none" stroke-dasharray="5,5"/>
  <text x="890" y="185" text-anchor="middle" fill="#dc2626" font-size="11" font-weight="bold">GET</text>
  <text x="890" y="210" text-anchor="middle" fill="#dc2626" font-size="9">/clicks/count</text>
  
  <!-- Legend -->
  <g id="legend">
    <rect x="50" y="360" width="250" height="100" fill="white" stroke="#374151" stroke-width="1" rx="5"/>
    <text x="175" y="380" text-anchor="middle" fill="#374151" font-size="12" font-weight="bold">Data Flow Legend</text>

    <line x1="70" y1="395" x2="90" y2="395" stroke="#374151" stroke-width="3" marker-end="url(#arrowhead)"/>
    <text x="100" y="400" fill="#374151" font-size="10">Event Flow (Kafka)</text>

    <line x1="70" y1="415" x2="90" y2="415" stroke="#dc2626" stroke-width="2" stroke-dasharray="5,5"/>
    <text x="100" y="420" fill="#374151" font-size="10">REST API Call</text>

    <rect x="70" y="430" width="15" height="10" fill="url(#webGradient)"/>
    <text x="95" y="440" fill="#374151" font-size="10">Web Applications</text>
  </g>
  
  <!-- Module Information -->
  <g id="modules-info">
    <rect x="650" y="550" width="500" height="350" fill="white" stroke="#374151" stroke-width="1" rx="6"/>
    <text x="900" y="570" text-anchor="middle" fill="#374151" font-size="14" font-weight="bold">Module Architecture</text>

    <text x="670" y="595" fill="#374151" font-size="11" font-weight="bold">kafka-broker:</text>
    <text x="670" y="610" fill="#374151" font-size="10">• Shared Kafka configuration</text>
    <text x="670" y="625" fill="#374151" font-size="10">• Common models (ClickEvent, ClickCountResult)</text>

    <text x="670" y="650" fill="#374151" font-size="11" font-weight="bold">click-producer:</text>
    <text x="670" y="665" fill="#374151" font-size="10">• Web UI with Thymeleaf</text>
    <text x="670" y="680" fill="#374151" font-size="10">• Publishes click events to Kafka</text>

    <text x="670" y="705" fill="#374151" font-size="11" font-weight="bold">click-streams:</text>
    <text x="670" y="720" fill="#374151" font-size="10">• Processes click streams in real-time</text>
    <text x="670" y="735" fill="#374151" font-size="10">• Aggregates counts using KTable</text>

    <text x="670" y="760" fill="#374151" font-size="11" font-weight="bold">click-consumer:</text>
    <text x="670" y="775" fill="#374151" font-size="10">• API Service</text>
    <text x="670" y="790" fill="#374151" font-size="10">• Listen click-counts events from Kafka after click-streams tasks</text>

  </g>
</svg>